<?xml version="1.0" standalone="yes"?><svg xmlns="http://www.w3.org/2000/svg" version="1.1" width="296" height="296" viewBox="0 0 296 296" shape-rendering="crispEdges"><rect x="0" y="0" width="296" height="296" fill="#ffffff"/><path fill="#000000" d="M32 32h8v8H32V32M40 32h8v8H40V32M48 32h8v8H48V32M56 32h8v8H56V32M64 32h8v8H64V32M72 32h8v8H72V32M80 32h8v8H80V32M96 32h8v8H96V32M128 32h8v8H128V32M136 32h8v8H136V32M144 32h8v8H144V32M152 32h8v8H152V32M168 32h8v8H168V32M176 32h8v8H176V32M184 32h8v8H184V32M192 32h8v8H192V32M208 32h8v8H208V32M216 32h8v8H216V32M224 32h8v8H224V32M232 32h8v8H232V32M240 32h8v8H240V32M248 32h8v8H248V32M256 32h8v8H256V32M32 40h8v8H32V40M80 40h8v8H80V40M96 40h8v8H96V40M104 40h8v8H104V40M136 40h8v8H136V40M160 40h8v8H160V40M176 40h8v8H176V40M192 40h8v8H192V40M208 40h8v8H208V40M256 40h8v8H256V40M32 48h8v8H32V48M48 48h8v8H48V48M56 48h8v8H56V48M64 48h8v8H64V48M80 48h8v8H80V48M112 48h8v8H112V48M120 48h8v8H120V48M160 48h8v8H160V48M176 48h8v8H176V48M192 48h8v8H192V48M208 48h8v8H208V48M224 48h8v8H224V48M232 48h8v8H232V48M240 48h8v8H240V48M256 48h8v8H256V48M32 56h8v8H32V56M48 56h8v8H48V56M56 56h8v8H56V56M64 56h8v8H64V56M80 56h8v8H80V56M96 56h8v8H96V56M104 56h8v8H104V56M112 56h8v8H112V56M120 56h8v8H120V56M128 56h8v8H128V56M144 56h8v8H144V56M152 56h8v8H152V56M168 56h8v8H168V56M184 56h8v8H184V56M208 56h8v8H208V56M224 56h8v8H224V56M232 56h8v8H232V56M240 56h8v8H240V56M256 56h8v8H256V56M32 64h8v8H32V64M48 64h8v8H48V64M56 64h8v8H56V64M64 64h8v8H64V64M80 64h8v8H80V64M104 64h8v8H104V64M120 64h8v8H120V64M144 64h8v8H144V64M160 64h8v8H160V64M168 64h8v8H168V64M176 64h8v8H176V64M184 64h8v8H184V64M192 64h8v8H192V64M208 64h8v8H208V64M224 64h8v8H224V64M232 64h8v8H232V64M240 64h8v8H240V64M256 64h8v8H256V64M32 72h8v8H32V72M80 72h8v8H80V72M120 72h8v8H120V72M128 72h8v8H128V72M136 72h8v8H136V72M152 72h8v8H152V72M160 72h8v8H160V72M168 72h8v8H168V72M184 72h8v8H184V72M192 72h8v8H192V72M208 72h8v8H208V72M256 72h8v8H256V72M32 80h8v8H32V80M40 80h8v8H40V80M48 80h8v8H48V80M56 80h8v8H56V80M64 80h8v8H64V80M72 80h8v8H72V80M80 80h8v8H80V80M96 80h8v8H96V80M112 80h8v8H112V80M128 80h8v8H128V80M144 80h8v8H144V80M160 80h8v8H160V80M176 80h8v8H176V80M192 80h8v8H192V80M208 80h8v8H208V80M216 80h8v8H216V80M224 80h8v8H224V80M232 80h8v8H232V80M240 80h8v8H240V80M248 80h8v8H248V80M256 80h8v8H256V80M96 88h8v8H96V88M104 88h8v8H104V88M112 88h8v8H112V88M120 88h8v8H120V88M128 88h8v8H128V88M152 88h8v8H152V88M160 88h8v8H160V88M168 88h8v8H168V88M192 88h8v8H192V88M32 96h8v8H32V96M48 96h8v8H48V96M56 96h8v8H56V96M72 96h8v8H72V96M80 96h8v8H80V96M88 96h8v8H88V96M104 96h8v8H104V96M112 96h8v8H112V96M128 96h8v8H128V96M136 96h8v8H136V96M152 96h8v8H152V96M168 96h8v8H168V96M176 96h8v8H176V96M184 96h8v8H184V96M208 96h8v8H208V96M232 96h8v8H232V96M248 96h8v8H248V96M256 96h8v8H256V96M32 104h8v8H32V104M56 104h8v8H56V104M96 104h8v8H96V104M104 104h8v8H104V104M112 104h8v8H112V104M136 104h8v8H136V104M144 104h8v8H144V104M152 104h8v8H152V104M176 104h8v8H176V104M184 104h8v8H184V104M192 104h8v8H192V104M200 104h8v8H200V104M208 104h8v8H208V104M216 104h8v8H216V104M224 104h8v8H224V104M256 104h8v8H256V104M40 112h8v8H40V112M56 112h8v8H56V112M64 112h8v8H64V112M72 112h8v8H72V112M80 112h8v8H80V112M88 112h8v8H88V112M104 112h8v8H104V112M120 112h8v8H120V112M136 112h8v8H136V112M160 112h8v8H160V112M176 112h8v8H176V112M200 112h8v8H200V112M208 112h8v8H208V112M216 112h8v8H216V112M224 112h8v8H224V112M240 112h8v8H240V112M248 112h8v8H248V112M32 120h8v8H32V120M48 120h8v8H48V120M64 120h8v8H64V120M72 120h8v8H72V120M96 120h8v8H96V120M104 120h8v8H104V120M160 120h8v8H160V120M176 120h8v8H176V120M200 120h8v8H200V120M208 120h8v8H208V120M216 120h8v8H216V120M224 120h8v8H224V120M256 120h8v8H256V120M40 128h8v8H40V128M72 128h8v8H72V128M80 128h8v8H80V128M88 128h8v8H88V128M104 128h8v8H104V128M112 128h8v8H112V128M120 128h8v8H120V128M144 128h8v8H144V128M152 128h8v8H152V128M168 128h8v8H168V128M176 128h8v8H176V128M184 128h8v8H184V128M232 128h8v8H232V128M240 128h8v8H240V128M32 136h8v8H32V136M64 136h8v8H64V136M88 136h8v8H88V136M104 136h8v8H104V136M120 136h8v8H120V136M144 136h8v8H144V136M160 136h8v8H160V136M184 136h8v8H184V136M208 136h8v8H208V136M216 136h8v8H216V136M240 136h8v8H240V136M248 136h8v8H248V136M256 136h8v8H256V136M64 144h8v8H64V144M72 144h8v8H72V144M80 144h8v8H80V144M96 144h8v8H96V144M104 144h8v8H104V144M112 144h8v8H112V144M136 144h8v8H136V144M152 144h8v8H152V144M160 144h8v8H160V144M168 144h8v8H168V144M176 144h8v8H176V144M184 144h8v8H184V144M192 144h8v8H192V144M200 144h8v8H200V144M216 144h8v8H216V144M224 144h8v8H224V144M240 144h8v8H240V144M248 144h8v8H248V144M256 144h8v8H256V144M32 152h8v8H32V152M48 152h8v8H48V152M72 152h8v8H72V152M112 152h8v8H112V152M120 152h8v8H120V152M144 152h8v8H144V152M160 152h8v8H160V152M192 152h8v8H192V152M208 152h8v8H208V152M216 152h8v8H216V152M224 152h8v8H224V152M248 152h8v8H248V152M32 160h8v8H32V160M48 160h8v8H48V160M56 160h8v8H56V160M72 160h8v8H72V160M80 160h8v8H80V160M88 160h8v8H88V160M96 160h8v8H96V160M104 160h8v8H104V160M120 160h8v8H120V160M128 160h8v8H128V160M144 160h8v8H144V160M152 160h8v8H152V160M200 160h8v8H200V160M224 160h8v8H224V160M232 160h8v8H232V160M248 160h8v8H248V160M40 168h8v8H40V168M56 168h8v8H56V168M72 168h8v8H72V168M112 168h8v8H112V168M128 168h8v8H128V168M144 168h8v8H144V168M160 168h8v8H160V168M192 168h8v8H192V168M200 168h8v8H200V168M216 168h8v8H216V168M232 168h8v8H232V168M240 168h8v8H240V168M248 168h8v8H248V168M32 176h8v8H32V176M56 176h8v8H56V176M72 176h8v8H72V176M80 176h8v8H80V176M88 176h8v8H88V176M96 176h8v8H96V176M136 176h8v8H136V176M144 176h8v8H144V176M152 176h8v8H152V176M176 176h8v8H176V176M192 176h8v8H192V176M200 176h8v8H200V176M216 176h8v8H216V176M240 176h8v8H240V176M64 184h8v8H64V184M88 184h8v8H88V184M120 184h8v8H120V184M136 184h8v8H136V184M144 184h8v8H144V184M168 184h8v8H168V184M192 184h8v8H192V184M208 184h8v8H208V184M240 184h8v8H240V184M40 192h8v8H40V192M56 192h8v8H56V192M64 192h8v8H64V192M80 192h8v8H80V192M88 192h8v8H88V192M104 192h8v8H104V192M120 192h8v8H120V192M136 192h8v8H136V192M144 192h8v8H144V192M160 192h8v8H160V192M168 192h8v8H168V192M192 192h8v8H192V192M200 192h8v8H200V192M208 192h8v8H208V192M216 192h8v8H216V192M224 192h8v8H224V192M232 192h8v8H232V192M240 192h8v8H240V192M96 200h8v8H96V200M152 200h8v8H152V200M168 200h8v8H168V200M176 200h8v8H176V200M184 200h8v8H184V200M192 200h8v8H192V200M224 200h8v8H224V200M232 200h8v8H232V200M240 200h8v8H240V200M248 200h8v8H248V200M256 200h8v8H256V200M32 208h8v8H32V208M40 208h8v8H40V208M48 208h8v8H48V208M56 208h8v8H56V208M64 208h8v8H64V208M72 208h8v8H72V208M80 208h8v8H80V208M96 208h8v8H96V208M144 208h8v8H144V208M152 208h8v8H152V208M160 208h8v8H160V208M168 208h8v8H168V208M184 208h8v8H184V208M192 208h8v8H192V208M208 208h8v8H208V208M224 208h8v8H224V208M232 208h8v8H232V208M248 208h8v8H248V208M32 216h8v8H32V216M80 216h8v8H80V216M96 216h8v8H96V216M112 216h8v8H112V216M120 216h8v8H120V216M136 216h8v8H136V216M144 216h8v8H144V216M192 216h8v8H192V216M224 216h8v8H224V216M232 216h8v8H232V216M32 224h8v8H32V224M48 224h8v8H48V224M56 224h8v8H56V224M64 224h8v8H64V224M80 224h8v8H80V224M120 224h8v8H120V224M128 224h8v8H128V224M152 224h8v8H152V224M160 224h8v8H160V224M192 224h8v8H192V224M200 224h8v8H200V224M208 224h8v8H208V224M216 224h8v8H216V224M224 224h8v8H224V224M240 224h8v8H240V224M248 224h8v8H248V224M256 224h8v8H256V224M32 232h8v8H32V232M48 232h8v8H48V232M56 232h8v8H56V232M64 232h8v8H64V232M80 232h8v8H80V232M96 232h8v8H96V232M136 232h8v8H136V232M152 232h8v8H152V232M160 232h8v8H160V232M176 232h8v8H176V232M200 232h8v8H200V232M224 232h8v8H224V232M232 232h8v8H232V232M248 232h8v8H248V232M32 240h8v8H32V240M48 240h8v8H48V240M56 240h8v8H56V240M64 240h8v8H64V240M80 240h8v8H80V240M96 240h8v8H96V240M128 240h8v8H128V240M136 240h8v8H136V240M152 240h8v8H152V240M168 240h8v8H168V240M192 240h8v8H192V240M216 240h8v8H216V240M240 240h8v8H240V240M256 240h8v8H256V240M32 248h8v8H32V248M80 248h8v8H80V248M104 248h8v8H104V248M128 248h8v8H128V248M136 248h8v8H136V248M144 248h8v8H144V248M176 248h8v8H176V248M192 248h8v8H192V248M200 248h8v8H200V248M208 248h8v8H208V248M216 248h8v8H216V248M232 248h8v8H232V248M248 248h8v8H248V248M32 256h8v8H32V256M40 256h8v8H40V256M48 256h8v8H48V256M56 256h8v8H56V256M64 256h8v8H64V256M72 256h8v8H72V256M80 256h8v8H80V256M96 256h8v8H96V256M104 256h8v8H104V256M128 256h8v8H128V256M152 256h8v8H152V256M168 256h8v8H168V256M192 256h8v8H192V256M200 256h8v8H200V256M232 256h8v8H232V256M248 256h8v8H248V256"/></svg>